HIERARCHY
ROOT Hips
{
	OFFSET 0.000000 0.000000 0.000000
	CHANNELS 6 Xposition Yposition Zposition Zrotation Yrotation Xrotation 
		JOINT LeftUpLeg
		{
			OFFSET 1.363060 -1.794630 0.839290
			CHANNELS 3 Zrotation Yrotation Xrotation
			JOINT LeftLeg
			{
				OFFSET 2.448110 -6.726130 0.000000
				CHANNELS 3 Zrotation Yrotation Xrotation
				JOINT LeftFoot
				{
					OFFSET 2.562200 -7.039590 0.000000
					CHANNELS 3 Zrotation Yrotation Xrotation
					JOINT LeftToeBase
					{
						OFFSET 0.157640 -0.433110 2.322550
						CHANNELS 3 Zrotation Yrotation Xrotation
						End Site
						{
							OFFSET 0.000000 0.000000 0.000000
						}
					}
				}
			}
		}
		JOINT RightUpLeg
		{
			OFFSET -1.305520 -1.794630 0.839290
			CHANNELS 3 Zrotation Yrotation Xrotation
			JOINT RightLeg
			{
				OFFSET -2.542530 -6.985550 0.000000
				CHANNELS 3 Zrotation Yrotation Xrotation
				JOINT RightFoot
				{
					OFFSET -2.568260 -7.056230 0.000000
					CHANNELS 3 Zrotation Yrotation Xrotation
					JOINT RightToeBase
					{
						OFFSET -0.164730 -0.452590 2.363150
						CHANNELS 3 Zrotation Yrotation Xrotation
						End Site
						{
							OFFSET 0.000000 0.000000 0.000000
						}
					}
				}
			}
		}
		JOINT Spine
		{
			OFFSET -0.000000 1.017795 0.000000
			CHANNELS 3 Zrotation Yrotation Xrotation
			JOINT Spine1
			{
				OFFSET 0.056720 2.048850 -0.042750
				CHANNELS 3 Zrotation Yrotation Xrotation
            JOINT Spine2
            {
                OFFSET -0.000000 1.017795 0.000000
                CHANNELS 3 Zrotation Yrotation Xrotation
					JOINT Neck1
					{
						OFFSET -0.054170 1.746240 0.172020
						CHANNELS 3 Zrotation Yrotation Xrotation
						JOINT Head
						{
							OFFSET 0.104070 1.761360 -0.123970
							CHANNELS 3 Zrotation Yrotation Xrotation
							End Site
							{
								OFFSET 0.000000 0.000000 0.000000
							}
						}
					}
				JOINT LeftShoulder
				{
					OFFSET 0.000000 0.000000 0.000000
					CHANNELS 3 Zrotation Yrotation Xrotation
					JOINT LeftArm
					{
						OFFSET 3.362410 1.200890 -0.311210
						CHANNELS 3 Zrotation Yrotation Xrotation
						JOINT LeftForeArm
						{
							OFFSET 4.983000 -0.000000 -0.000000
							CHANNELS 3 Zrotation Yrotation Xrotation
							JOINT LeftHand
							{
								OFFSET 3.483560 -0.000000 -0.000000
								CHANNELS 3 Zrotation Yrotation Xrotation
									End Site
									{
										OFFSET 0.000000 0.000000 0.000000
									}
							}
						}
					}
				}
				JOINT RightShoulder
				{
					OFFSET 0.000000 0.000000 0.000000
					CHANNELS 3 Zrotation Yrotation Xrotation
					JOINT RightArm
					{
						OFFSET -3.136600 1.374050 -0.404650
						CHANNELS 3 Zrotation Yrotation Xrotation
						JOINT RightForeArm
						{
							OFFSET -5.241900 -0.000000 -0.000000
							CHANNELS 3 Zrotation Yrotation Xrotation
							JOINT RightHand
							{
								OFFSET -3.444170 -0.000000 -0.000000
								CHANNELS 3 Zrotation Yrotation Xrotation
									End Site
									{
										OFFSET 0.000000 0.000000 0.000000
									}
							}
						}
					}
				}
			}
            }
		}
}
MOTION
Frames: 9
Frame Time: 0.008333
4.280503    17.077466    -1.887089    98.970522    -81.881797    -97.745744    -18.406846    -12.228442000000001    -84.90652899999999    -5.688488    -1.549644    -4.765559    -1.409252    -10.366991    22.607790    -4.746700    -0.000000    -63.060500    14.752755    -0.05358699999999983    -11.118846    1.181886    -1.914538    23.635799    -1.838091    -6.804421    -12.783887    0.448800    -0.000000    -47.189100    0.000000    0.000000    0.000000    -11.488401    -2.024088    4.279467    -6.475223    -0.762759    -0.833033    6.405721000000001    -4.69611    -4.960269    0.000000    0.000000    0.000000    -4.373237    4.690722    1.823079    -74.621532    10.867735    6.465102    -2.924493    -26.291684    0.005071    4.553570    -3.681498    -0.145741    16.127587    -1.175667    1.370022    66.244611    13.402913    -1.713046    2.898856    21.645762    0.011968    -3.132844    11.631638    -0.331833
4.272281    17.076638    -1.884306    99.289252    -81.972130    -98.036192    -19.098343    -11.973040999999998    -83.674093    -5.651874    -1.675341    -5.712740    -1.456814    -8.845575    22.704261    -3.807100    0.000001    -62.991900    14.863052    -0.056956999999999924    -11.113368    1.195314    -1.896716    23.594834    -1.839737    -6.809552    -12.776157    0.448600    0.000000    -47.317200    0.000000    0.000000    0.000000    -11.329698    -2.114585    4.116144    -6.471236    -0.811526    -0.807845    6.361416    -4.756982    -4.955277000000001    0.000000    0.000000    0.000000    -4.449664    4.782368    1.815550    -74.744845    10.832813    6.229493    -2.921965    -26.268507    0.005028    4.554735    -3.707516    -0.146940    16.136125    -1.244446    1.320317    66.446588    13.466127    -0.821228    2.917599    22.041135    0.012460    -2.776094    11.465500    -0.290726
4.263994    17.075394    -1.882026    99.419708    -82.139451    -98.120549    -19.45904    -11.700453    -81.840765    -5.527817    -1.852552    -7.369427    -1.457189    -6.890214    23.670061    -2.721400    -0.000000    -62.361400    15.071275    0.028579999999999828    -11.088182    1.208026    -1.878284    23.541002    -1.869472    -6.956300    -12.779008    0.454501    0.000000    -47.342600    0.000000    0.000000    0.000000    -11.11521    -2.222396    3.9494930000000004    -6.479549    -0.869802    -0.776278    6.344053000000001    -4.865102    -4.970147    0.000000    0.000000    0.000000    -4.488235    4.853483    1.806431    -74.862172    10.790022    6.009114    -2.917551    -26.263069    0.004991    4.564215    -3.737853    -0.148438    16.211963    -1.364569    1.273291    66.626511    13.542675    0.086825    2.936242    22.478391    0.012938    -2.408735    11.299120    -0.249519
4.256147    17.073798    -1.881048    99.378888    -82.381219    -97.997854    -19.308612    -11.518037    -81.411963    -5.317647    -1.637357    -5.778132    -1.225914    -4.665111    23.256928    -1.521200    0.000000    -61.007201    15.363374    0.17674499999999993    -11.062147    1.223557    -1.860714    23.459730    -1.916207    -7.188508    -12.788559    0.464000    -0.000000    -47.285000    0.000000    0.000000    0.000000    -10.855622    -2.341147    3.7648120000000005    -6.500093    -0.933904    -0.750311    6.358604    -4.978671    -4.994649    0.000000    0.000000    0.000000    -4.474810    4.899418    1.801750    -74.973240    10.738449    5.813585    -2.913285    -26.265134    0.004959    4.577103    -3.772788    -0.150335    16.344121    -1.493746    1.230857    66.802014    13.572824    0.916405    2.949936    22.982206    0.013359    -2.028802    11.152300    -0.208513
4.248504    17.072158    -1.880437    99.179012    -82.666901    -97.715364    -18.543554    -11.430324    -81.05852200000001    -4.984446    -1.335369    -3.514900    -0.905571    -2.182114    22.873094    -0.237500    0.000000    -59.016800    15.703100000000001    0.35459799999999997    -10.998379    1.240717    -1.843649    23.333499    -1.974550    -7.480201    -12.789090    0.473601    -0.000000    -47.174700    0.000000    0.000000    0.000000    -10.570034    -2.461831    3.5990629999999997    -6.528989    -0.999072    -0.724755    6.396642    -5.129536999999999    -5.035655    0.000000    0.000000    0.000000    -4.430198    4.916790    1.797140    -75.071734    10.677602    5.652777    -2.908212    -26.280875    0.004928    4.589569    -3.808917    -0.152231    16.519384    -1.660818    1.192933    66.967494    13.594113    1.725030    2.958955    23.526883    0.013710    -1.689402    11.037331    -0.172906
4.241296    17.070796    -1.879814    98.754293    -82.971749    -97.226606    -17.205776    -11.476232    -80.487858    -4.539623    -1.028385    -1.165124    -0.536068    0.375950    22.785679    1.055500    -0.000000    -56.623800    16.055243    0.5134249999999999    -10.890170000000001    1.258999    -1.826329    23.153594    -2.035173    -7.786163    -12.769776    0.479700    0.000000    -47.047000    0.000000    0.000000    0.000000    -10.277403    -2.5818839999999996    3.470815    -6.563039    -1.063779    -0.703832    6.449971999999999    -5.302044    -5.0853600000000005    0.000000    0.000000    0.000000    -4.364668    4.900094    1.794149    -75.153458    10.607213    5.535596    -2.902700    -26.307473    0.004894    4.599645    -3.844328    -0.154127    16.716433    -1.848084    1.158957    67.133836    13.585683    2.474024    2.961254    24.110568    0.013973    -1.407695    10.966256    -0.144200
4.234326    17.070137    -1.880456    97.997880    -83.249860    -96.431560    -15.486820999999999    -11.681239    -79.682428    -4.031997    -0.739085    1.179945    -0.160619    2.757836    22.979320    2.259100    -0.000000    -54.159200    16.362221    0.5819669999999999    -10.764201    1.275201    -1.808726    22.946731    -2.082332    -8.026825    -12.740486    0.481700    -0.000000    -46.931500    0.000000    0.000000    0.000000    -10.039983    -2.702004    3.3877319999999997    -6.601356    -1.127485    -0.689857    6.523473999999999    -5.482688    -5.137282    0.000000    0.000000    0.000000    -4.260430    4.845923    1.793553    -75.216015    10.528777    5.459964    -2.899238    -26.336937    0.004864    4.605186    -3.880265    -0.155725    16.936115    -2.042612    1.127665    67.318450    13.530427    3.137401    2.953750    24.720323    0.014133    -1.199702    10.954915    -0.123693
4.227411    17.070707    -1.881896    96.894677    -83.497745    -95.313928    -13.60445    -12.04393    -78.695892    -3.509921    -0.473232    3.497154    0.174154    4.715936    23.403976    3.260901    0.000000    -52.047700    16.620169    0.5493139999999999    -10.623006    1.289022    -1.788238    22.702089    -2.113433    -8.192942    -12.688429    0.477500    -0.000001    -46.853801    0.000000    0.000000    0.000000    -9.850155    -2.821033    3.3442730000000003    -6.641676    -1.189716    -0.682306    6.608763    -5.671285    -5.188464000000001    0.000000    0.000000    0.000000    -4.132712    4.755217    1.794071    -75.253911    10.445057    5.428187    -2.897632    -26.368760    0.004836    4.605811    -3.914556    -0.157219    17.162072    -2.245837    1.097713    67.527396    13.430055    3.714080    2.937168    25.334596    0.014188    -1.082111    11.004998    -0.112686
4.220221    17.072974    -1.884373    95.465380    -83.705510    -93.888591    -11.762173    -12.537794    -77.585184    -3.016690    -0.231270    5.770113    0.435799    6.101263    23.991985    3.981100    0.000000    -50.593000    16.82075    0.4107449999999999    -10.476164    1.299143    -1.763076    22.421516    -2.125871    -8.273216    -12.610221    0.466400    0.000000    -46.829100    0.000000    0.000000    0.000000    -9.716071    -2.9376740000000003    3.330215    -6.683101    -1.249785    -0.680039    6.702912    -5.865687    -5.2360310000000005    0.000000    0.000000    0.000000    -3.984552    4.631653    1.794290    -75.263036    10.359638    5.437605    -2.898445    -26.402125    0.004816    4.601098    -3.946140    -0.158414    17.387924    -2.456957    1.067687    67.769410    13.285405    4.203121    2.912139    25.931267    0.014137    -1.061111    11.113965    -0.111579
